<svg width="713" height="365" viewBox="0 0 713 365" fill="none" xmlns="http://www.w3.org/2000/svg">
<g filter="url(#filter0_d_1_35084)">
<g style="mix-blend-mode:exclusion">
<path d="M168.609 212.136V128.386H127.047V99.4012H249.312V128.386H207.75V212.136H168.609ZM259.625 212.136V99.4012H297.438V143.229H297.984C300.901 137.292 305.224 132.656 310.953 129.323C316.734 125.99 323.87 124.323 332.359 124.323C340.328 124.323 347.099 125.755 352.672 128.62C358.297 131.485 362.568 135.677 365.484 141.198C368.453 146.667 369.938 153.36 369.938 161.276V212.136H332.125V169.636C332.125 163.594 330.693 159.011 327.828 155.886C325.016 152.708 320.875 151.12 315.406 151.12C311.656 151.12 308.427 151.875 305.719 153.386C303.062 154.896 301.005 157.057 299.547 159.87C298.141 162.63 297.438 165.964 297.438 169.87V212.136H259.625ZM437.594 214.323C425.771 214.323 415.562 212.578 406.969 209.089C398.375 205.547 391.734 200.443 387.047 193.776C382.411 187.11 380.094 179.063 380.094 169.636V169.557C380.094 160.13 382.438 152.057 387.125 145.339C391.865 138.568 398.479 133.386 406.969 129.792C415.458 126.146 425.302 124.323 436.5 124.323C448.01 124.323 457.958 126.224 466.344 130.026C474.781 133.828 481.292 139.167 485.875 146.042C490.51 152.917 492.828 161.016 492.828 170.339V176.823H399.703V159.557H468.062L457.906 171.589V165.886C457.906 161.927 457.125 158.542 455.562 155.729C454 152.917 451.708 150.755 448.688 149.245C445.667 147.735 441.969 146.979 437.594 146.979C433.115 146.979 429.26 147.708 426.031 149.167C422.854 150.625 420.406 152.787 418.688 155.651C417.021 158.516 416.188 162.057 416.188 166.276V171.745C416.188 176.485 417.099 180.339 418.922 183.307C420.745 186.276 423.323 188.464 426.656 189.87C430.042 191.224 434.104 191.901 438.844 191.901C441.76 191.901 444.417 191.563 446.812 190.886C449.26 190.208 451.37 189.297 453.141 188.151C454.911 187.005 456.266 185.677 457.203 184.167L457.438 183.854H491.734L491.578 184.714C490.484 189.089 488.453 193.099 485.484 196.745C482.516 200.339 478.688 203.464 474 206.12C469.365 208.724 463.974 210.729 457.828 212.136C451.734 213.594 444.99 214.323 437.594 214.323ZM534.703 212.136V129.636H533.922L500.875 148.854V118.854L534.625 99.4012H573.766V212.136H534.703Z" fill="white"/>
</g>
<path d="M109.375 255.452C107.609 255.452 106.09 255.264 104.816 254.889C103.543 254.507 102.543 253.952 101.816 253.225C101.09 252.499 100.66 251.62 100.527 250.589L100.504 250.436H102.988L103.035 250.577C103.191 251.171 103.531 251.675 104.055 252.089C104.586 252.495 105.309 252.804 106.223 253.014C107.137 253.225 108.242 253.331 109.539 253.331C110.664 253.331 111.625 253.218 112.422 252.991C113.227 252.757 113.836 252.421 114.25 251.983C114.672 251.546 114.883 251.026 114.883 250.425V250.413C114.883 249.632 114.578 249.046 113.969 248.655C113.367 248.264 112.316 247.987 110.816 247.823L106.82 247.46C104.82 247.241 103.34 246.757 102.379 246.007C101.418 245.257 100.938 244.214 100.938 242.878V242.866C100.938 241.858 101.254 240.983 101.887 240.241C102.52 239.499 103.414 238.925 104.57 238.518C105.727 238.112 107.094 237.909 108.672 237.909C110.32 237.909 111.746 238.104 112.949 238.495C114.152 238.886 115.102 239.448 115.797 240.182C116.5 240.917 116.926 241.804 117.074 242.843L117.086 242.96H114.602L114.578 242.843C114.383 242.21 114.043 241.686 113.559 241.272C113.082 240.858 112.438 240.55 111.625 240.346C110.812 240.136 109.816 240.03 108.637 240.03C107.535 240.03 106.598 240.139 105.824 240.358C105.059 240.577 104.473 240.893 104.066 241.307C103.66 241.714 103.457 242.206 103.457 242.784V242.796C103.457 243.514 103.762 244.073 104.371 244.471C104.98 244.862 105.977 245.128 107.359 245.268L111.367 245.632C112.773 245.788 113.918 246.054 114.801 246.429C115.691 246.804 116.348 247.307 116.77 247.94C117.199 248.573 117.414 249.35 117.414 250.272V250.284C117.414 251.378 117.098 252.311 116.465 253.085C115.84 253.85 114.926 254.436 113.723 254.843C112.527 255.249 111.078 255.452 109.375 255.452ZM125.383 255.405C124.219 255.405 123.211 255.182 122.359 254.737C121.508 254.284 120.852 253.636 120.391 252.792C119.938 251.94 119.711 250.913 119.711 249.71V242.807H122.102V249.323C122.102 250.628 122.434 251.632 123.098 252.335C123.762 253.038 124.742 253.389 126.039 253.389C126.719 253.389 127.34 253.288 127.902 253.085C128.473 252.882 128.965 252.589 129.379 252.206C129.801 251.823 130.125 251.358 130.352 250.811C130.586 250.264 130.703 249.647 130.703 248.96V242.807H133.094V255.136H130.703V252.71H130.633C130.328 253.257 129.918 253.733 129.402 254.139C128.895 254.538 128.301 254.85 127.621 255.077C126.941 255.296 126.195 255.405 125.383 255.405ZM135.941 259.261V242.819H138.344V245.151H138.402C138.746 244.628 139.188 244.171 139.727 243.78C140.266 243.389 140.898 243.089 141.625 242.878C142.352 242.659 143.164 242.55 144.062 242.55C145.469 242.55 146.676 242.827 147.684 243.382C148.699 243.929 149.477 244.686 150.016 245.655C150.562 246.624 150.836 247.729 150.836 248.971V248.983C150.836 250.225 150.562 251.331 150.016 252.3C149.477 253.268 148.699 254.03 147.684 254.585C146.676 255.132 145.473 255.405 144.074 255.405C143.176 255.405 142.359 255.3 141.625 255.089C140.898 254.87 140.262 254.565 139.715 254.175C139.176 253.784 138.738 253.327 138.402 252.804H138.344V259.261H135.941ZM143.418 253.413C144.465 253.413 145.359 253.237 146.102 252.886C146.844 252.526 147.41 252.018 147.801 251.362C148.191 250.698 148.387 249.905 148.387 248.983V248.971C148.387 248.05 148.191 247.261 147.801 246.604C147.41 245.94 146.844 245.432 146.102 245.081C145.359 244.721 144.465 244.542 143.418 244.542C142.387 244.542 141.488 244.725 140.723 245.093C139.965 245.46 139.379 245.975 138.965 246.639C138.551 247.304 138.344 248.081 138.344 248.971V248.983C138.344 249.874 138.551 250.651 138.965 251.315C139.387 251.979 139.977 252.495 140.734 252.862C141.492 253.229 142.387 253.413 143.418 253.413ZM153.098 259.261V242.819H155.5V245.151H155.559C155.902 244.628 156.344 244.171 156.883 243.78C157.422 243.389 158.055 243.089 158.781 242.878C159.508 242.659 160.32 242.55 161.219 242.55C162.625 242.55 163.832 242.827 164.84 243.382C165.855 243.929 166.633 244.686 167.172 245.655C167.719 246.624 167.992 247.729 167.992 248.971V248.983C167.992 250.225 167.719 251.331 167.172 252.3C166.633 253.268 165.855 254.03 164.84 254.585C163.832 255.132 162.629 255.405 161.23 255.405C160.332 255.405 159.516 255.3 158.781 255.089C158.055 254.87 157.418 254.565 156.871 254.175C156.332 253.784 155.895 253.327 155.559 252.804H155.5V259.261H153.098ZM160.574 253.413C161.621 253.413 162.516 253.237 163.258 252.886C164 252.526 164.566 252.018 164.957 251.362C165.348 250.698 165.543 249.905 165.543 248.983V248.971C165.543 248.05 165.348 247.261 164.957 246.604C164.566 245.94 164 245.432 163.258 245.081C162.516 244.721 161.621 244.542 160.574 244.542C159.543 244.542 158.645 244.725 157.879 245.093C157.121 245.46 156.535 245.975 156.121 246.639C155.707 247.304 155.5 248.081 155.5 248.971V248.983C155.5 249.874 155.707 250.651 156.121 251.315C156.543 251.979 157.133 252.495 157.891 252.862C158.648 253.229 159.543 253.413 160.574 253.413ZM177.109 255.405C175.641 255.405 174.348 255.143 173.23 254.62C172.113 254.096 171.238 253.354 170.605 252.393C169.98 251.432 169.668 250.296 169.668 248.983V248.96C169.668 247.647 169.98 246.514 170.605 245.561C171.238 244.6 172.113 243.858 173.23 243.335C174.348 242.804 175.641 242.538 177.109 242.538C178.586 242.538 179.883 242.804 181 243.335C182.117 243.858 182.988 244.6 183.613 245.561C184.238 246.514 184.551 247.647 184.551 248.96V248.983C184.551 250.296 184.238 251.432 183.613 252.393C182.988 253.354 182.117 254.096 181 254.62C179.883 255.143 178.586 255.405 177.109 255.405ZM177.109 253.413C178.102 253.413 178.969 253.241 179.711 252.897C180.461 252.546 181.047 252.042 181.469 251.386C181.891 250.721 182.102 249.921 182.102 248.983V248.96C182.102 248.022 181.891 247.225 181.469 246.569C181.047 245.905 180.461 245.401 179.711 245.057C178.961 244.706 178.094 244.53 177.109 244.53C176.133 244.53 175.266 244.706 174.508 245.057C173.758 245.401 173.172 245.905 172.75 246.569C172.328 247.225 172.117 248.022 172.117 248.96V248.983C172.117 249.921 172.328 250.721 172.75 251.386C173.172 252.042 173.758 252.546 174.508 252.897C175.266 253.241 176.133 253.413 177.109 253.413ZM186.824 255.136V242.819H189.227V245.245H189.297C189.586 244.417 190.094 243.768 190.82 243.3C191.555 242.823 192.438 242.585 193.469 242.585C193.695 242.585 193.91 242.596 194.113 242.62C194.316 242.636 194.492 242.655 194.641 242.679V244.835C194.453 244.804 194.234 244.78 193.984 244.764C193.742 244.741 193.488 244.729 193.223 244.729C192.402 244.729 191.695 244.889 191.102 245.21C190.508 245.522 190.047 245.975 189.719 246.569C189.391 247.163 189.227 247.878 189.227 248.714V255.136H186.824ZM202.832 255.346C201.27 255.346 200.109 255.022 199.352 254.374C198.602 253.718 198.227 252.698 198.227 251.315V244.694H195.496V242.819H198.227V239.538H200.641V242.819H204.789V244.694H200.641V251.081C200.641 251.956 200.848 252.573 201.262 252.932C201.684 253.284 202.367 253.46 203.312 253.46C203.562 253.46 203.82 253.448 204.086 253.425C204.359 253.393 204.594 253.362 204.789 253.331V255.182C204.516 255.229 204.211 255.268 203.875 255.3C203.539 255.331 203.191 255.346 202.832 255.346ZM207.238 255.136V242.819H209.629V255.136H207.238ZM208.434 240.804C208.027 240.804 207.684 240.671 207.402 240.405C207.121 240.132 206.98 239.8 206.98 239.409C206.98 239.018 207.121 238.69 207.402 238.425C207.684 238.151 208.027 238.014 208.434 238.014C208.848 238.014 209.191 238.151 209.465 238.425C209.746 238.69 209.887 239.018 209.887 239.409C209.887 239.8 209.746 240.132 209.465 240.405C209.191 240.671 208.848 240.804 208.434 240.804ZM212.594 255.136V242.819H214.996V245.245H215.055C215.516 244.409 216.203 243.749 217.117 243.264C218.031 242.78 219.109 242.538 220.352 242.538C222.172 242.538 223.586 243.046 224.594 244.061C225.602 245.069 226.105 246.483 226.105 248.304V255.136H223.715V248.69C223.715 247.339 223.375 246.311 222.695 245.608C222.016 244.905 221.012 244.554 219.684 244.554C218.738 244.554 217.914 244.737 217.211 245.104C216.508 245.471 215.961 245.987 215.57 246.651C215.188 247.315 214.996 248.096 214.996 248.995V255.136H212.594ZM235.855 259.542C234.605 259.542 233.504 259.405 232.551 259.132C231.598 258.858 230.812 258.468 230.195 257.96C229.586 257.452 229.152 256.858 228.895 256.179L228.859 256.073H231.496L231.555 256.155C231.859 256.608 232.371 256.964 233.09 257.221C233.809 257.479 234.73 257.608 235.855 257.608C237.48 257.608 238.703 257.292 239.523 256.659C240.352 256.034 240.766 255.159 240.766 254.034V252.675H240.707C240.371 253.19 239.93 253.639 239.383 254.022C238.844 254.397 238.211 254.69 237.484 254.901C236.766 255.112 235.969 255.218 235.094 255.218C233.719 255.218 232.523 254.944 231.508 254.397C230.5 253.85 229.719 253.104 229.164 252.159C228.617 251.206 228.344 250.116 228.344 248.889V248.878C228.344 247.651 228.621 246.565 229.176 245.62C229.73 244.667 230.512 243.917 231.52 243.37C232.535 242.823 233.734 242.55 235.117 242.55C235.984 242.55 236.777 242.659 237.496 242.878C238.215 243.096 238.844 243.401 239.383 243.792C239.93 244.182 240.371 244.639 240.707 245.163H240.766V242.819H243.168V254.151C243.168 255.261 242.883 256.218 242.312 257.022C241.742 257.827 240.91 258.448 239.816 258.886C238.73 259.323 237.41 259.542 235.855 259.542ZM235.762 253.261C236.762 253.261 237.637 253.081 238.387 252.721C239.137 252.354 239.719 251.843 240.133 251.186C240.555 250.53 240.766 249.768 240.766 248.901V248.878C240.766 248.003 240.555 247.241 240.133 246.593C239.719 245.936 239.137 245.429 238.387 245.069C237.637 244.702 236.762 244.518 235.762 244.518C234.738 244.518 233.852 244.698 233.102 245.057C232.359 245.409 231.789 245.909 231.391 246.557C230.992 247.206 230.793 247.979 230.793 248.878V248.901C230.793 249.8 230.992 250.577 231.391 251.233C231.789 251.882 232.359 252.382 233.102 252.733C233.852 253.085 234.738 253.261 235.762 253.261ZM252.273 255.136V253.483L261.344 247.413C262.242 246.78 262.945 246.233 263.453 245.772C263.961 245.311 264.316 244.878 264.52 244.471C264.73 244.057 264.836 243.616 264.836 243.147V243.124C264.836 242.475 264.648 241.913 264.273 241.436C263.898 240.96 263.359 240.593 262.656 240.335C261.953 240.077 261.113 239.948 260.137 239.948C259.098 239.948 258.191 240.093 257.418 240.382C256.645 240.671 256.027 241.085 255.566 241.624C255.113 242.155 254.832 242.796 254.723 243.546L254.699 243.675H252.332L252.344 243.593C252.43 242.421 252.805 241.409 253.469 240.557C254.141 239.706 255.043 239.05 256.176 238.589C257.316 238.128 258.637 237.897 260.137 237.897C261.621 237.897 262.898 238.108 263.969 238.53C265.039 238.952 265.859 239.55 266.43 240.323C267.008 241.089 267.297 242.003 267.297 243.065V243.089C267.297 243.768 267.156 244.405 266.875 244.999C266.594 245.593 266.121 246.206 265.457 246.839C264.793 247.464 263.883 248.179 262.727 248.983L255.871 253.53L256.656 252.077V253.975L255.754 253.061H267.789V255.136H252.273ZM269.383 258.698L270.648 252.569H273.074L271.07 258.698H269.383ZM280.082 255.136V240.639H280.012L274.949 243.569V241.272L280.059 238.225H282.496V255.136H280.082ZM295.094 255.452C293.352 255.452 291.84 255.249 290.559 254.843C289.285 254.429 288.301 253.85 287.605 253.108C286.91 252.366 286.562 251.499 286.562 250.507V250.483C286.562 249.796 286.73 249.171 287.066 248.608C287.402 248.038 287.879 247.55 288.496 247.143C289.113 246.737 289.848 246.444 290.699 246.264V246.206C289.598 245.948 288.727 245.487 288.086 244.823C287.445 244.159 287.125 243.374 287.125 242.468V242.444C287.125 241.514 287.441 240.71 288.074 240.03C288.715 239.35 289.629 238.827 290.816 238.46C292.004 238.093 293.43 237.909 295.094 237.909C296.75 237.909 298.172 238.093 299.359 238.46C300.547 238.827 301.457 239.35 302.09 240.03C302.73 240.71 303.051 241.514 303.051 242.444V242.468C303.051 243.374 302.73 244.159 302.09 244.823C301.449 245.487 300.578 245.948 299.477 246.206V246.264C300.32 246.444 301.051 246.737 301.668 247.143C302.293 247.55 302.773 248.038 303.109 248.608C303.445 249.171 303.613 249.796 303.613 250.483V250.507C303.613 251.499 303.266 252.366 302.57 253.108C301.875 253.85 300.887 254.429 299.605 254.843C298.332 255.249 296.828 255.452 295.094 255.452ZM295.094 253.436C296.336 253.436 297.402 253.311 298.293 253.061C299.184 252.804 299.867 252.444 300.344 251.983C300.828 251.514 301.07 250.964 301.07 250.331V250.307C301.07 249.682 300.836 249.147 300.367 248.702C299.898 248.257 299.219 247.913 298.328 247.671C297.438 247.429 296.359 247.307 295.094 247.307C293.82 247.307 292.738 247.429 291.848 247.671C290.957 247.913 290.277 248.257 289.809 248.702C289.34 249.147 289.105 249.682 289.105 250.307V250.331C289.105 250.964 289.344 251.514 289.82 251.983C290.305 252.444 290.992 252.804 291.883 253.061C292.773 253.311 293.844 253.436 295.094 253.436ZM295.094 245.339C296.266 245.339 297.262 245.229 298.082 245.011C298.902 244.792 299.523 244.479 299.945 244.073C300.375 243.659 300.59 243.167 300.59 242.596V242.573C300.59 242.026 300.375 241.554 299.945 241.155C299.523 240.749 298.902 240.44 298.082 240.229C297.27 240.018 296.273 239.913 295.094 239.913C293.906 239.913 292.902 240.018 292.082 240.229C291.27 240.44 290.648 240.749 290.219 241.155C289.797 241.554 289.586 242.026 289.586 242.573V242.596C289.586 243.167 289.797 243.659 290.219 244.073C290.648 244.479 291.27 244.792 292.082 245.011C292.902 245.229 293.906 245.339 295.094 245.339ZM314.277 255.452C312.598 255.452 311.156 255.257 309.953 254.866C308.75 254.475 307.809 253.917 307.129 253.19C306.457 252.456 306.07 251.569 305.969 250.53L305.957 250.354H308.336L308.359 250.471C308.445 251.096 308.73 251.628 309.215 252.065C309.707 252.503 310.375 252.839 311.219 253.073C312.07 253.3 313.086 253.413 314.266 253.413C315.43 253.413 316.414 253.292 317.219 253.05C318.031 252.807 318.648 252.46 319.07 252.007C319.5 251.546 319.715 250.995 319.715 250.354V250.331C319.715 249.339 319.293 248.6 318.449 248.116C317.605 247.624 316.34 247.378 314.652 247.378H309.941V245.456H314.547C315.547 245.456 316.395 245.346 317.09 245.128C317.785 244.909 318.312 244.596 318.672 244.19C319.031 243.776 319.211 243.28 319.211 242.702V242.679C319.211 242.077 319.027 241.573 318.66 241.167C318.293 240.761 317.734 240.456 316.984 240.253C316.242 240.05 315.301 239.948 314.16 239.948C313.043 239.948 312.09 240.057 311.301 240.276C310.52 240.487 309.91 240.811 309.473 241.249C309.035 241.679 308.77 242.21 308.676 242.843L308.664 242.983H306.297L306.32 242.807C306.43 241.776 306.809 240.897 307.457 240.171C308.113 239.436 309.012 238.878 310.152 238.495C311.301 238.104 312.664 237.909 314.242 237.909C315.844 237.909 317.195 238.089 318.297 238.448C319.398 238.807 320.234 239.327 320.805 240.007C321.375 240.679 321.66 241.499 321.66 242.468V242.491C321.66 243.155 321.508 243.749 321.203 244.272C320.898 244.788 320.461 245.218 319.891 245.561C319.328 245.905 318.66 246.151 317.887 246.3V246.346C319.191 246.448 320.238 246.862 321.027 247.589C321.824 248.315 322.223 249.241 322.223 250.366V250.389C322.223 251.429 321.902 252.327 321.262 253.085C320.629 253.843 319.719 254.429 318.531 254.843C317.344 255.249 315.926 255.452 314.277 255.452ZM333.496 249.335L333.484 246.3H334.07L344.406 238.225H347.91L337.973 245.878L337.773 245.913L333.496 249.335ZM331.527 255.136V238.225H334.012V255.136H331.527ZM345.109 255.136L336.379 246.569L338.219 245.011L348.473 255.136H345.109ZM359.031 255.452C356.984 255.452 355.203 255.096 353.688 254.386C352.172 253.667 350.996 252.651 350.16 251.339C349.324 250.018 348.906 248.468 348.906 246.686V246.663C348.906 244.874 349.324 243.327 350.16 242.022C350.996 240.71 352.172 239.698 353.688 238.987C355.211 238.268 356.992 237.909 359.031 237.909C361.078 237.909 362.859 238.268 364.375 238.987C365.898 239.698 367.078 240.71 367.914 242.022C368.75 243.327 369.168 244.874 369.168 246.663V246.686C369.168 248.468 368.75 250.018 367.914 251.339C367.078 252.651 365.898 253.667 364.375 254.386C362.859 255.096 361.078 255.452 359.031 255.452ZM359.031 253.272C360.57 253.272 361.906 253.003 363.039 252.464C364.18 251.925 365.062 251.163 365.688 250.179C366.312 249.186 366.625 248.022 366.625 246.686V246.663C366.625 245.327 366.312 244.167 365.688 243.182C365.062 242.19 364.18 241.429 363.039 240.897C361.906 240.358 360.57 240.089 359.031 240.089C357.5 240.089 356.164 240.358 355.023 240.897C353.891 241.429 353.012 242.19 352.387 243.182C351.762 244.167 351.449 245.327 351.449 246.663V246.686C351.449 248.022 351.762 249.186 352.387 250.179C353.012 251.163 353.891 251.925 355.023 252.464C356.164 253.003 357.5 253.272 359.031 253.272ZM371.98 255.136V238.225H374.465V253.003H385.656V255.136H371.98ZM394.117 255.405C392.734 255.405 391.555 255.261 390.578 254.971C389.602 254.675 388.84 254.249 388.293 253.694C387.746 253.132 387.422 252.456 387.32 251.667L387.309 251.585H389.699L389.723 251.667C389.871 252.292 390.312 252.768 391.047 253.096C391.781 253.417 392.82 253.577 394.164 253.577C394.969 253.577 395.648 253.503 396.203 253.354C396.758 253.206 397.18 252.995 397.469 252.721C397.758 252.44 397.902 252.1 397.902 251.702V251.69C397.902 251.221 397.715 250.866 397.34 250.624C396.973 250.374 396.324 250.194 395.395 250.085L391.949 249.721C391.004 249.604 390.215 249.401 389.582 249.112C388.957 248.823 388.484 248.448 388.164 247.987C387.852 247.518 387.695 246.968 387.695 246.335V246.323C387.695 245.55 387.934 244.882 388.41 244.319C388.887 243.749 389.566 243.311 390.449 243.007C391.34 242.694 392.398 242.538 393.625 242.538C394.93 242.538 396.043 242.69 396.965 242.995C397.887 243.292 398.602 243.714 399.109 244.261C399.625 244.807 399.914 245.464 399.977 246.229L399.988 246.358H397.727L397.715 246.3C397.613 245.706 397.207 245.237 396.496 244.893C395.793 244.55 394.84 244.378 393.637 244.378C392.879 244.378 392.238 244.452 391.715 244.6C391.191 244.741 390.793 244.948 390.52 245.221C390.254 245.495 390.121 245.823 390.121 246.206V246.218C390.121 246.522 390.203 246.78 390.367 246.991C390.539 247.202 390.809 247.374 391.176 247.507C391.551 247.639 392.035 247.745 392.629 247.823L396.074 248.186C397.59 248.366 398.676 248.725 399.332 249.264C399.996 249.796 400.328 250.554 400.328 251.538V251.55C400.328 252.339 400.078 253.022 399.578 253.6C399.086 254.179 398.375 254.624 397.445 254.936C396.523 255.249 395.414 255.405 394.117 255.405ZM413.84 255.382C412.738 255.382 411.777 255.237 410.957 254.948C410.137 254.651 409.5 254.218 409.047 253.647C408.594 253.069 408.367 252.366 408.367 251.538V251.514C408.367 250.819 408.539 250.21 408.883 249.686C409.234 249.163 409.781 248.753 410.523 248.456C411.273 248.151 412.234 247.983 413.406 247.952L420.508 247.8V249.487L413.688 249.663C412.664 249.686 411.926 249.854 411.473 250.167C411.02 250.479 410.793 250.905 410.793 251.444V251.468C410.793 252.147 411.113 252.655 411.754 252.991C412.395 253.319 413.234 253.483 414.273 253.483C415.281 253.483 416.16 253.343 416.91 253.061C417.668 252.772 418.258 252.374 418.68 251.866C419.102 251.35 419.312 250.749 419.312 250.061V247.401C419.312 246.479 418.961 245.768 418.258 245.268C417.555 244.761 416.562 244.507 415.281 244.507C414.148 244.507 413.238 244.694 412.551 245.069C411.863 245.444 411.43 245.952 411.25 246.593L411.227 246.698H408.906L408.918 246.569C409.043 245.788 409.379 245.096 409.926 244.495C410.473 243.886 411.199 243.409 412.105 243.065C413.02 242.714 414.082 242.538 415.293 242.538C416.645 242.538 417.797 242.729 418.75 243.112C419.711 243.487 420.441 244.026 420.941 244.729C421.449 245.432 421.703 246.272 421.703 247.249V255.136H419.312V252.932H419.242C418.953 253.432 418.539 253.866 418 254.233C417.461 254.593 416.836 254.874 416.125 255.077C415.414 255.28 414.652 255.382 413.84 255.382ZM424.516 255.136V242.819H426.918V245.245H426.977C427.438 244.409 428.125 243.749 429.039 243.264C429.953 242.78 431.031 242.538 432.273 242.538C434.094 242.538 435.508 243.046 436.516 244.061C437.523 245.069 438.027 246.483 438.027 248.304V255.136H435.637V248.69C435.637 247.339 435.297 246.311 434.617 245.608C433.938 244.905 432.934 244.554 431.605 244.554C430.66 244.554 429.836 244.737 429.133 245.104C428.43 245.471 427.883 245.987 427.492 246.651C427.109 247.315 426.918 248.096 426.918 248.995V255.136H424.516ZM447.016 255.405C445.609 255.405 444.398 255.132 443.383 254.585C442.367 254.03 441.586 253.268 441.039 252.3C440.5 251.331 440.23 250.225 440.23 248.983V248.96C440.23 247.718 440.504 246.616 441.051 245.655C441.598 244.686 442.375 243.925 443.383 243.37C444.398 242.815 445.605 242.538 447.004 242.538C447.902 242.538 448.715 242.647 449.441 242.866C450.168 243.085 450.801 243.389 451.34 243.78C451.887 244.171 452.328 244.628 452.664 245.151H452.734V238.108H455.125V255.136H452.734V252.792H452.664C452.328 253.323 451.887 253.784 451.34 254.175C450.801 254.565 450.168 254.87 449.441 255.089C448.723 255.3 447.914 255.405 447.016 255.405ZM447.66 253.413C448.691 253.413 449.586 253.229 450.344 252.862C451.102 252.495 451.688 251.979 452.102 251.315C452.523 250.643 452.734 249.866 452.734 248.983V248.96C452.734 248.077 452.523 247.304 452.102 246.639C451.688 245.975 451.102 245.46 450.344 245.093C449.586 244.725 448.691 244.542 447.66 244.542C446.613 244.542 445.719 244.721 444.977 245.081C444.234 245.432 443.664 245.94 443.266 246.604C442.875 247.261 442.68 248.046 442.68 248.96V248.983C442.68 249.905 442.875 250.698 443.266 251.362C443.664 252.018 444.234 252.526 444.977 252.886C445.719 253.237 446.613 253.413 447.66 253.413ZM472.434 255.464C470.934 255.464 469.613 255.264 468.473 254.866C467.34 254.46 466.426 253.889 465.73 253.155C465.043 252.421 464.613 251.554 464.441 250.554L464.418 250.413H466.844L466.879 250.518C467.051 251.112 467.379 251.628 467.863 252.065C468.348 252.495 468.977 252.827 469.75 253.061C470.523 253.288 471.418 253.401 472.434 253.401C473.559 253.401 474.523 253.253 475.328 252.956C476.133 252.651 476.746 252.221 477.168 251.667C477.598 251.112 477.812 250.444 477.812 249.663V249.639C477.812 248.889 477.594 248.241 477.156 247.694C476.727 247.147 476.105 246.729 475.293 246.44C474.488 246.143 473.527 245.995 472.41 245.995C471.418 245.995 470.527 246.104 469.738 246.323C468.949 246.542 468.281 246.866 467.734 247.296C467.586 247.405 467.441 247.534 467.301 247.682C467.168 247.823 467.043 247.975 466.926 248.139H464.711L465.719 238.225H479.277V240.311H467.711L467.078 245.983H467.137C467.543 245.561 468.031 245.206 468.602 244.917C469.172 244.628 469.82 244.409 470.547 244.261C471.273 244.112 472.062 244.038 472.914 244.038C474.406 244.038 475.703 244.268 476.805 244.729C477.906 245.19 478.758 245.839 479.359 246.675C479.961 247.511 480.262 248.495 480.262 249.628V249.651C480.262 250.823 479.938 251.846 479.289 252.721C478.648 253.589 477.742 254.264 476.57 254.749C475.398 255.225 474.02 255.464 472.434 255.464ZM490.914 255.452C489.172 255.452 487.66 255.249 486.379 254.843C485.105 254.429 484.121 253.85 483.426 253.108C482.73 252.366 482.383 251.499 482.383 250.507V250.483C482.383 249.796 482.551 249.171 482.887 248.608C483.223 248.038 483.699 247.55 484.316 247.143C484.934 246.737 485.668 246.444 486.52 246.264V246.206C485.418 245.948 484.547 245.487 483.906 244.823C483.266 244.159 482.945 243.374 482.945 242.468V242.444C482.945 241.514 483.262 240.71 483.895 240.03C484.535 239.35 485.449 238.827 486.637 238.46C487.824 238.093 489.25 237.909 490.914 237.909C492.57 237.909 493.992 238.093 495.18 238.46C496.367 238.827 497.277 239.35 497.91 240.03C498.551 240.71 498.871 241.514 498.871 242.444V242.468C498.871 243.374 498.551 244.159 497.91 244.823C497.27 245.487 496.398 245.948 495.297 246.206V246.264C496.141 246.444 496.871 246.737 497.488 247.143C498.113 247.55 498.594 248.038 498.93 248.608C499.266 249.171 499.434 249.796 499.434 250.483V250.507C499.434 251.499 499.086 252.366 498.391 253.108C497.695 253.85 496.707 254.429 495.426 254.843C494.152 255.249 492.648 255.452 490.914 255.452ZM490.914 253.436C492.156 253.436 493.223 253.311 494.113 253.061C495.004 252.804 495.688 252.444 496.164 251.983C496.648 251.514 496.891 250.964 496.891 250.331V250.307C496.891 249.682 496.656 249.147 496.188 248.702C495.719 248.257 495.039 247.913 494.148 247.671C493.258 247.429 492.18 247.307 490.914 247.307C489.641 247.307 488.559 247.429 487.668 247.671C486.777 247.913 486.098 248.257 485.629 248.702C485.16 249.147 484.926 249.682 484.926 250.307V250.331C484.926 250.964 485.164 251.514 485.641 251.983C486.125 252.444 486.812 252.804 487.703 253.061C488.594 253.311 489.664 253.436 490.914 253.436ZM490.914 245.339C492.086 245.339 493.082 245.229 493.902 245.011C494.723 244.792 495.344 244.479 495.766 244.073C496.195 243.659 496.41 243.167 496.41 242.596V242.573C496.41 242.026 496.195 241.554 495.766 241.155C495.344 240.749 494.723 240.44 493.902 240.229C493.09 240.018 492.094 239.913 490.914 239.913C489.727 239.913 488.723 240.018 487.902 240.229C487.09 240.44 486.469 240.749 486.039 241.155C485.617 241.554 485.406 242.026 485.406 242.573V242.596C485.406 243.167 485.617 243.659 486.039 244.073C486.469 244.479 487.09 244.792 487.902 245.011C488.723 245.229 489.727 245.339 490.914 245.339ZM502 255.136V253.483L511.07 247.413C511.969 246.78 512.672 246.233 513.18 245.772C513.688 245.311 514.043 244.878 514.246 244.471C514.457 244.057 514.562 243.616 514.562 243.147V243.124C514.562 242.475 514.375 241.913 514 241.436C513.625 240.96 513.086 240.593 512.383 240.335C511.68 240.077 510.84 239.948 509.863 239.948C508.824 239.948 507.918 240.093 507.145 240.382C506.371 240.671 505.754 241.085 505.293 241.624C504.84 242.155 504.559 242.796 504.449 243.546L504.426 243.675H502.059L502.07 243.593C502.156 242.421 502.531 241.409 503.195 240.557C503.867 239.706 504.77 239.05 505.902 238.589C507.043 238.128 508.363 237.897 509.863 237.897C511.348 237.897 512.625 238.108 513.695 238.53C514.766 238.952 515.586 239.55 516.156 240.323C516.734 241.089 517.023 242.003 517.023 243.065V243.089C517.023 243.768 516.883 244.405 516.602 244.999C516.32 245.593 515.848 246.206 515.184 246.839C514.52 247.464 513.609 248.179 512.453 248.983L505.598 253.53L506.383 252.077V253.975L505.48 253.061H517.516V255.136H502ZM532.598 255.346C531.035 255.346 529.875 255.022 529.117 254.374C528.367 253.718 527.992 252.698 527.992 251.315V244.694H525.262V242.819H527.992V239.538H530.406V242.819H534.555V244.694H530.406V251.081C530.406 251.956 530.613 252.573 531.027 252.932C531.449 253.284 532.133 253.46 533.078 253.46C533.328 253.46 533.586 253.448 533.852 253.425C534.125 253.393 534.359 253.362 534.555 253.331V255.182C534.281 255.229 533.977 255.268 533.641 255.3C533.305 255.331 532.957 255.346 532.598 255.346ZM543.32 255.405C541.852 255.405 540.559 255.143 539.441 254.62C538.324 254.096 537.449 253.354 536.816 252.393C536.191 251.432 535.879 250.296 535.879 248.983V248.96C535.879 247.647 536.191 246.514 536.816 245.561C537.449 244.6 538.324 243.858 539.441 243.335C540.559 242.804 541.852 242.538 543.32 242.538C544.797 242.538 546.094 242.804 547.211 243.335C548.328 243.858 549.199 244.6 549.824 245.561C550.449 246.514 550.762 247.647 550.762 248.96V248.983C550.762 250.296 550.449 251.432 549.824 252.393C549.199 253.354 548.328 254.096 547.211 254.62C546.094 255.143 544.797 255.405 543.32 255.405ZM543.32 253.413C544.312 253.413 545.18 253.241 545.922 252.897C546.672 252.546 547.258 252.042 547.68 251.386C548.102 250.721 548.312 249.921 548.312 248.983V248.96C548.312 248.022 548.102 247.225 547.68 246.569C547.258 245.905 546.672 245.401 545.922 245.057C545.172 244.706 544.305 244.53 543.32 244.53C542.344 244.53 541.477 244.706 540.719 245.057C539.969 245.401 539.383 245.905 538.961 246.569C538.539 247.225 538.328 248.022 538.328 248.96V248.983C538.328 249.921 538.539 250.721 538.961 251.386C539.383 252.042 539.969 252.546 540.719 252.897C541.477 253.241 542.344 253.413 543.32 253.413ZM553.164 255.136V238.108H555.566V255.136H553.164ZM563.852 255.136L557.477 248.702L559.281 247.366L566.875 255.136H563.852ZM554.98 251.011L554.969 248.304H555.613L563.301 242.796H566.652L558.977 248.339L558.648 248.444L554.98 251.011ZM574.621 255.405C573.074 255.405 571.742 255.155 570.625 254.655C569.516 254.147 568.66 253.417 568.059 252.464C567.465 251.511 567.168 250.362 567.168 249.018V249.007C567.168 247.694 567.473 246.554 568.082 245.585C568.691 244.616 569.539 243.866 570.625 243.335C571.719 242.804 572.992 242.542 574.445 242.55C575.922 242.557 577.188 242.831 578.242 243.37C579.305 243.909 580.117 244.663 580.68 245.632C581.242 246.6 581.523 247.729 581.523 249.018V249.604H568.387V247.882H580.07L579.168 249.276V248.585C579.168 247.749 578.977 247.026 578.594 246.417C578.219 245.807 577.676 245.335 576.965 244.999C576.262 244.663 575.426 244.495 574.457 244.495C573.434 244.495 572.555 244.659 571.82 244.987C571.094 245.315 570.535 245.8 570.145 246.44C569.762 247.073 569.57 247.858 569.57 248.796V249.194C569.57 250.233 569.801 251.065 570.262 251.69C570.73 252.315 571.352 252.768 572.125 253.05C572.906 253.323 573.762 253.46 574.691 253.46C575.34 253.46 575.945 253.389 576.508 253.249C577.078 253.108 577.57 252.905 577.984 252.639C578.406 252.366 578.711 252.038 578.898 251.655L578.945 251.561H581.336L581.289 251.679C581.086 252.288 580.777 252.827 580.363 253.296C579.949 253.757 579.449 254.143 578.863 254.456C578.277 254.768 577.625 255.003 576.906 255.159C576.195 255.323 575.434 255.405 574.621 255.405ZM583.797 255.136V242.819H586.199V245.245H586.258C586.719 244.409 587.406 243.749 588.32 243.264C589.234 242.78 590.312 242.538 591.555 242.538C593.375 242.538 594.789 243.046 595.797 244.061C596.805 245.069 597.309 246.483 597.309 248.304V255.136H594.918V248.69C594.918 247.339 594.578 246.311 593.898 245.608C593.219 244.905 592.215 244.554 590.887 244.554C589.941 244.554 589.117 244.737 588.414 245.104C587.711 245.471 587.164 245.987 586.773 246.651C586.391 247.315 586.199 248.096 586.199 248.995V255.136H583.797ZM606.344 255.405C604.961 255.405 603.781 255.261 602.805 254.971C601.828 254.675 601.066 254.249 600.52 253.694C599.973 253.132 599.648 252.456 599.547 251.667L599.535 251.585H601.926L601.949 251.667C602.098 252.292 602.539 252.768 603.273 253.096C604.008 253.417 605.047 253.577 606.391 253.577C607.195 253.577 607.875 253.503 608.43 253.354C608.984 253.206 609.406 252.995 609.695 252.721C609.984 252.44 610.129 252.1 610.129 251.702V251.69C610.129 251.221 609.941 250.866 609.566 250.624C609.199 250.374 608.551 250.194 607.621 250.085L604.176 249.721C603.23 249.604 602.441 249.401 601.809 249.112C601.184 248.823 600.711 248.448 600.391 247.987C600.078 247.518 599.922 246.968 599.922 246.335V246.323C599.922 245.55 600.16 244.882 600.637 244.319C601.113 243.749 601.793 243.311 602.676 243.007C603.566 242.694 604.625 242.538 605.852 242.538C607.156 242.538 608.27 242.69 609.191 242.995C610.113 243.292 610.828 243.714 611.336 244.261C611.852 244.807 612.141 245.464 612.203 246.229L612.215 246.358H609.953L609.941 246.3C609.84 245.706 609.434 245.237 608.723 244.893C608.02 244.55 607.066 244.378 605.863 244.378C605.105 244.378 604.465 244.452 603.941 244.6C603.418 244.741 603.02 244.948 602.746 245.221C602.48 245.495 602.348 245.823 602.348 246.206V246.218C602.348 246.522 602.43 246.78 602.594 246.991C602.766 247.202 603.035 247.374 603.402 247.507C603.777 247.639 604.262 247.745 604.855 247.823L608.301 248.186C609.816 248.366 610.902 248.725 611.559 249.264C612.223 249.796 612.555 250.554 612.555 251.538V251.55C612.555 252.339 612.305 253.022 611.805 253.6C611.312 254.179 610.602 254.624 609.672 254.936C608.75 255.249 607.641 255.405 606.344 255.405Z" fill="#8181E5"/>
</g>
<defs>
<filter id="filter0_d_1_35084" x="-68.5" y="-95" width="850" height="495.271" filterUnits="userSpaceOnUse" color-interpolation-filters="sRGB">
<feFlood flood-opacity="0" result="BackgroundImageFix"/>
<feColorMatrix in="SourceAlpha" type="matrix" values="0 0 0 0 0 0 0 0 0 0 0 0 0 0 0 0 0 0 127 0" result="hardAlpha"/>
<feOffset dy="5"/>
<feGaussianBlur stdDeviation="50"/>
<feComposite in2="hardAlpha" operator="out"/>
<feColorMatrix type="matrix" values="0 0 0 0 0.463021 0 0 0 0 0.463021 0 0 0 0 0.879329 0 0 0 1 0"/>
<feBlend mode="normal" in2="BackgroundImageFix" result="effect1_dropShadow_1_35084"/>
<feBlend mode="normal" in="SourceGraphic" in2="effect1_dropShadow_1_35084" result="shape"/>
</filter>
</defs>
</svg>
