<svg width="647" height="320" viewBox="0 0 647 320" fill="none" xmlns="http://www.w3.org/2000/svg">
<g filter="url(#filter0_d_1_35084)">
<g style="mix-blend-mode:exclusion">
<path d="M141.609 212.135V128.385H100.047V99.4011H222.312V128.385H180.75V212.135H141.609ZM232.625 212.135V99.4011H270.438V143.229H270.984C273.901 137.292 278.224 132.656 283.953 129.323C289.734 125.99 296.87 124.323 305.359 124.323C313.328 124.323 320.099 125.755 325.672 128.62C331.297 131.484 335.568 135.677 338.484 141.198C341.453 146.667 342.938 153.359 342.938 161.276V212.135H305.125V169.635C305.125 163.594 303.693 159.01 300.828 155.885C298.016 152.708 293.875 151.12 288.406 151.12C284.656 151.12 281.427 151.875 278.719 153.385C276.062 154.896 274.005 157.057 272.547 159.87C271.141 162.63 270.438 165.964 270.438 169.87V212.135H232.625ZM410.594 214.323C398.771 214.323 388.562 212.578 379.969 209.089C371.375 205.547 364.734 200.443 360.047 193.776C355.411 187.109 353.094 179.063 353.094 169.635V169.557C353.094 160.13 355.438 152.057 360.125 145.339C364.865 138.568 371.479 133.385 379.969 129.792C388.458 126.146 398.302 124.323 409.5 124.323C421.01 124.323 430.958 126.224 439.344 130.026C447.781 133.828 454.292 139.167 458.875 146.042C463.51 152.917 465.828 161.016 465.828 170.339V176.823H372.703V159.557H441.062L430.906 171.589V165.885C430.906 161.927 430.125 158.542 428.562 155.729C427 152.917 424.708 150.755 421.688 149.245C418.667 147.734 414.969 146.979 410.594 146.979C406.115 146.979 402.26 147.708 399.031 149.167C395.854 150.625 393.406 152.787 391.688 155.651C390.021 158.516 389.188 162.057 389.188 166.276V171.745C389.188 176.484 390.099 180.339 391.922 183.307C393.745 186.276 396.323 188.464 399.656 189.87C403.042 191.224 407.104 191.901 411.844 191.901C414.76 191.901 417.417 191.563 419.812 190.885C422.26 190.208 424.37 189.297 426.141 188.151C427.911 187.005 429.266 185.677 430.203 184.167L430.438 183.854H464.734L464.578 184.714C463.484 189.089 461.453 193.099 458.484 196.745C455.516 200.339 451.688 203.464 447 206.12C442.365 208.724 436.974 210.729 430.828 212.135C424.734 213.594 417.99 214.323 410.594 214.323ZM507.703 212.135V129.635H506.922L473.875 148.854V118.854L507.625 99.4011H546.766V212.135H507.703Z" fill="white"/>
</g>
</g>
<defs>
<filter id="filter0_d_1_35084" x="-4" y="-95" width="667" height="495.271" filterUnits="userSpaceOnUse" color-interpolation-filters="sRGB">
<feFlood flood-opacity="0" result="BackgroundImageFix"/>
<feColorMatrix in="SourceAlpha" type="matrix" values="0 0 0 0 0 0 0 0 0 0 0 0 0 0 0 0 0 0 127 0" result="hardAlpha"/>
<feOffset dy="5"/>
<feGaussianBlur stdDeviation="50"/>
<feComposite in2="hardAlpha" operator="out"/>
<feColorMatrix type="matrix" values="0 0 0 0 0.463021 0 0 0 0 0.463021 0 0 0 0 0.879329 0 0 0 1 0"/>
<feBlend mode="normal" in2="BackgroundImageFix" result="effect1_dropShadow_1_35084"/>
<feBlend mode="normal" in="SourceGraphic" in2="effect1_dropShadow_1_35084" result="shape"/>
</filter>
</defs>
</svg>
